<svg width="300" height="114" viewBox="0 0 300 114" fill="none" xmlns="http://www.w3.org/2000/svg">
<path d="M215.326 113.547H191.481L252.797 7.24335e-05H286.699L300 113.547H278.75L268.693 29.5226C268.044 24.4941 268.369 19.6278 268.369 19.6278H265.449C265.449 19.6278 263.665 24.4937 261.232 29.36C259.447 32.442 215.326 113.547 215.326 113.547Z" fill="#FFCC58"/>
<path d="M119.583 113.547H95.7384L157.054 1.13983e-05H190.955L204.257 113.547H183.007L172.95 29.5225C172.301 24.494 172.626 19.6278 172.626 19.6278H169.706C169.706 19.6278 167.922 24.4937 165.488 29.36C163.704 32.442 119.583 113.547 119.583 113.547Z" fill="#FFCC58"/>
<path d="M23.8451 113.547H0.000127745L61.3157 1.13983e-05H95.2176L108.519 113.547H87.2691L77.2123 29.5225C76.5634 24.494 76.8876 19.6278 76.8876 19.6278H73.9678C73.9678 19.6278 72.1837 24.4937 69.7506 29.36C67.9663 32.442 23.8451 113.547 23.8451 113.547Z" fill="#FFCC58"/>
</svg>
