<svg width="112" height="93" viewBox="0 0 112 93" fill="none" xmlns="http://www.w3.org/2000/svg">
<path fill-rule="evenodd" clip-rule="evenodd" d="M55.761 28.19C55.7776 28.2165 60.9924 36.4927 64.4453 41.5252C63.3833 41.1182 62.3609 40.7285 61.6732 40.477C60.998 40.23 60.2494 40.5782 60.0026 41.254C59.7558 41.9298 60.1037 42.679 60.7789 42.926C62.4739 43.546 66.203 45.0046 67.5478 45.4966C68.1803 45.7279 68.8771 45.4371 69.1656 44.8439C69.4021 44.4334 69.3967 43.9211 69.1497 43.5153C69.0964 43.4277 67.2006 40.9843 66.849 40.477C63.5374 35.6986 57.9893 26.839 57.9726 26.812C56.005 23.6485 56.655 20.3855 58.1099 17.5759C59.9457 14.0303 63.058 11.1565 64.5572 9.88956C66.1368 11.3064 69.834 14.9149 72.2974 19.194C74.0477 22.2344 75.2126 25.621 74.2801 28.7778C73.6701 30.8432 72.1437 32.7707 69.3788 34.4448C68.7637 34.8174 68.5663 35.6195 68.9385 36.2352C69.3106 36.8507 70.112 37.0482 70.7271 36.6758C74.1861 34.5815 76.015 32.1009 76.7783 29.5169C77.9059 25.6994 76.6712 21.569 74.5544 17.8922C71.2006 12.0664 65.7132 7.40813 65.3271 7.13341C64.8533 6.79635 64.2136 6.81426 63.7593 7.17751C63.3137 7.53384 58.3992 11.3505 55.797 16.3762C53.9363 19.9695 53.2446 24.144 55.761 28.19ZM51.0894 38.3355C52.5539 39.371 54.1431 40.2778 55.7982 41.0516C56.4496 41.356 57.2254 41.0741 57.5295 40.4221C57.8337 39.7701 57.552 38.9937 56.9006 38.6891C55.3867 37.9814 53.9321 37.1531 52.5924 36.2058C52.0053 35.7907 51.1919 35.9308 50.7771 36.5184C50.3622 37.106 50.5022 37.9202 51.0894 38.3355ZM43.9459 29.9733C44.6915 31.6861 45.7245 33.2566 46.976 34.6785C47.4511 35.2183 48.2749 35.2705 48.8144 34.7949C49.3538 34.3193 49.4058 33.4948 48.9307 32.9548C47.86 31.7383 46.9721 30.3972 46.334 28.9318C46.0469 28.2723 45.2787 27.97 44.6197 28.2574C43.9608 28.5448 43.6588 29.3137 43.9459 29.9733ZM55.8157 6.94165C55.7832 6.91107 54.7434 5.95766 54.4584 5.73245C51.7477 3.58826 48.7455 2.56355 45.3148 4.63729C43.0253 6.02136 41.0694 7.90266 39.6902 9.27237C41.4999 10.0288 43.8016 11.2045 45.0144 12.7616C45.5302 13.4239 45.8282 14.4456 45.8974 15.6438C46.0219 17.7966 45.4651 20.6139 45.3167 21.9466C45.2254 22.7672 45.2033 23.5633 45.2453 24.3346C45.2845 25.053 44.7333 25.6682 44.0156 25.7074C43.2979 25.7464 42.6833 25.1949 42.6441 24.4765C42.5947 23.566 42.62 22.6265 42.7277 21.6579C42.8477 20.5796 43.2667 18.4733 43.3084 16.6136C43.329 15.6953 43.3303 14.8401 42.96 14.3646C41.5243 12.5215 38.1742 11.4482 36.8806 10.9883L34.7549 10.2324L36.4715 8.76753C37.6801 7.73641 40.4607 4.52561 43.9682 2.40541C48.5622 -0.371689 52.6226 0.906113 56.2377 3.82243C56.4604 4.00202 57.2478 4.68713 57.6528 5.08806L57.6517 5.08907C58.1276 5.58681 58.1359 6.37717 57.659 6.88488C57.1659 7.40965 56.34 7.43517 55.8157 6.94165Z" fill="#FFFB00"/>
<path d="M5.87236 73.5866C4.62158 73.5866 3.56076 73.3063 2.68988 72.7472C1.82062 72.1881 1.15742 71.4179 0.700256 70.4383C0.244697 69.4603 0.0112682 68.3405 0 67.0805C0.0112682 65.7979 0.249505 64.6685 0.717941 63.6905C1.18477 62.714 1.85603 61.9503 2.73013 61.3992C3.60422 60.8498 4.65863 60.5759 5.89492 60.5759C7.19076 60.5759 8.3079 60.8949 9.24638 61.5346C10.1849 62.1726 10.8159 63.0475 11.1395 64.1593L9.1321 64.7635C8.86971 64.0481 8.44798 63.4939 7.86686 63.0975C7.28574 62.7027 6.62089 62.5045 5.87236 62.5045C5.02724 62.5045 4.33187 62.6995 3.78456 63.091C3.23724 63.4842 2.83158 64.024 2.56436 64.7119C2.29875 65.4016 2.16187 66.1911 2.15382 67.0805C2.16509 68.4549 2.48228 69.5601 3.10364 70.3996C3.725 71.2374 4.64734 71.6579 5.87236 71.6579C6.67401 71.6579 7.34048 71.4727 7.8733 71.1037C8.40452 70.7347 8.81018 70.1998 9.08706 69.5005L11.1395 70.037C10.7097 71.1858 10.0432 72.064 9.13854 72.6731C8.23386 73.2821 7.14567 73.5866 5.87236 73.5866Z" fill="white"/>
<path d="M18.6998 73.5869C17.4716 73.5869 16.4156 73.3081 15.5287 72.7539C14.6433 72.198 13.9624 71.431 13.4859 70.4498C13.0078 69.4701 12.7695 68.3439 12.7695 67.0694C12.7695 65.7804 13.0126 64.6477 13.5004 63.6713C13.9865 62.6949 14.6738 61.9361 15.5608 61.3915C16.4478 60.8485 17.4941 60.5762 18.6998 60.5762C19.9313 60.5762 20.9905 60.8517 21.8775 61.4059C22.7645 61.9586 23.447 62.7239 23.9235 63.7003C24.4016 64.6751 24.6399 65.7981 24.6399 67.0694C24.6399 68.36 24.4 69.4927 23.9187 70.4707C23.4374 71.4487 22.7532 72.2125 21.863 72.7619C20.9745 73.3113 19.92 73.5869 18.6998 73.5869ZM18.6998 71.6582C19.9731 71.6582 20.9213 71.2312 21.5475 70.3789C22.1721 69.5265 22.4844 68.4245 22.4844 67.0694C22.4844 65.6805 22.1689 64.5736 21.5379 63.7455C20.9068 62.9173 19.9603 62.5048 18.6998 62.5048C17.8402 62.5048 17.132 62.6982 16.575 63.0865C16.018 63.4748 15.6043 64.0113 15.3322 64.6961C15.0602 65.3808 14.925 66.1719 14.925 67.0694C14.925 68.4583 15.2437 69.5701 15.8828 70.4047C16.5218 71.2409 17.4603 71.6582 18.6998 71.6582Z" fill="white"/>
<path d="M41.9248 73.2434L41.936 65.358C41.936 64.4363 41.6898 63.7162 41.1972 63.1941C40.7062 62.6737 40.0704 62.4127 39.2913 62.4127C38.8309 62.4127 38.3962 62.5191 37.9874 62.7301C37.5801 62.9412 37.2453 63.2682 36.9877 63.7113C36.7285 64.1544 36.5997 64.7216 36.5997 65.4144L35.5276 64.981C35.5083 64.1061 35.687 63.3391 36.0637 62.6817C36.4404 62.0227 36.9555 61.512 37.6107 61.1463C38.2675 60.7805 39.0047 60.5984 39.8273 60.5984C41.1102 60.5984 42.1228 60.9884 42.8601 61.7714C43.5973 62.5529 43.966 63.6001 43.966 64.9117L43.9547 73.2434H41.9248ZM27.1924 73.2434V60.9175H29.0049V64.2156H29.2336V73.2434H27.1924ZM34.5699 73.2434L34.5811 65.437C34.5811 64.4976 34.3381 63.758 33.8519 63.2199C33.3658 62.6817 32.7187 62.4127 31.9138 62.4127C31.1105 62.4127 30.465 62.6882 29.9724 63.2376C29.4798 63.7871 29.2336 64.5121 29.2336 65.4144L28.1615 64.7748C28.1615 63.9772 28.3514 63.2618 28.7313 62.6318C29.1112 62.0034 29.6296 61.5072 30.2831 61.143C30.9367 60.7805 31.6771 60.5984 32.5061 60.5984C33.3351 60.5984 34.0564 60.774 34.6697 61.1253C35.283 61.4781 35.7578 61.9793 36.0943 62.6302C36.4307 63.2795 36.5997 64.0529 36.5997 64.9471L36.5885 73.2434H34.5699Z" fill="white"/>
<path d="M61.6279 73.2434L61.6392 65.358C61.6392 64.4363 61.3929 63.7162 60.9003 63.1941C60.4077 62.6737 59.7735 62.4127 58.9944 62.4127C58.534 62.4127 58.0994 62.5191 57.6905 62.7301C57.2816 62.9412 56.9484 63.2682 56.6908 63.7113C56.4317 64.1544 56.3029 64.7216 56.3029 65.4144L55.2308 64.981C55.2115 64.1061 55.3901 63.3391 55.7668 62.6817C56.1435 62.0227 56.6586 61.512 57.3154 61.1463C57.9706 60.7805 58.7094 60.5984 59.5288 60.5984C60.815 60.5984 61.8259 60.9884 62.5632 61.7714C63.3005 62.5529 63.6691 63.6001 63.6691 64.9117L63.6578 73.2434H61.6279ZM46.8955 73.2434V60.9175H48.7081V64.2156H48.9367V73.2434H46.8955ZM54.273 73.2434L54.2842 65.437C54.2842 64.4976 54.0412 63.758 53.5551 63.2199C53.0689 62.6817 52.4218 62.4127 51.6169 62.4127C50.8153 62.4127 50.1665 62.6882 49.6755 63.2376C49.183 63.7871 48.9367 64.5121 48.9367 65.4144L47.8646 64.7748C47.8646 63.9772 48.0545 63.2618 48.4344 62.6318C48.8159 62.0034 49.3327 61.5072 49.9863 61.143C50.6398 60.7805 51.3803 60.5984 52.2093 60.5984C53.0383 60.5984 53.7595 60.774 54.3728 61.1253C54.9861 61.4781 55.4626 61.9793 55.799 62.6302C56.1339 63.2795 56.3029 64.0529 56.3029 64.9471L56.2916 73.2434H54.273Z" fill="white"/>
<path d="M71.9462 73.5869C70.7341 73.5869 69.6781 73.3194 68.7766 72.7845C67.8768 72.2496 67.1749 71.5003 66.6759 70.5368C66.1752 69.5717 65.9258 68.4471 65.9258 67.1613C65.9258 65.8143 66.172 64.6477 66.6646 63.6632C67.1572 62.6772 67.8462 61.9167 68.7347 61.3801C69.6217 60.8436 70.6616 60.5762 71.8561 60.5762C73.0907 60.5762 74.1435 60.8614 75.0144 61.4317C75.8837 62.0021 76.5388 62.8157 76.9783 63.8743C77.4177 64.9313 77.6045 66.1913 77.5401 67.651H75.4925V66.9212C75.4699 65.4066 75.1625 64.2756 74.5685 63.5263C73.9761 62.7771 73.094 62.4017 71.9237 62.4017C70.6665 62.4017 69.7103 62.8045 69.0583 63.6117C68.4064 64.4173 68.0812 65.5742 68.0812 67.0807C68.0812 68.5341 68.4064 69.6603 69.0583 70.4594C69.7103 71.2586 70.6423 71.6582 71.8561 71.6582C72.669 71.6582 73.3757 71.4713 73.9761 71.0991C74.5765 70.7253 75.0482 70.1888 75.3895 69.4895L77.3405 70.163C76.8575 71.2506 76.1364 72.0932 75.177 72.691C74.2159 73.2872 73.1407 73.5869 71.9462 73.5869ZM67.397 67.651V66.0189H76.497V67.651H67.397Z" fill="white"/>
<path d="M80.0166 73.2436V60.9177H81.8292V63.8968L81.533 63.5085C81.6778 63.1282 81.8662 62.7786 82.098 62.4579C82.3298 62.1389 82.5906 61.8763 82.8788 61.6717C83.1943 61.4171 83.5549 61.2206 83.9589 61.0836C84.3646 60.9466 84.775 60.8645 85.1936 60.8387C85.6121 60.8113 86.0033 60.8387 86.3687 60.9177V62.8237C85.9421 62.7141 85.4736 62.6852 84.9634 62.7383C84.4515 62.7915 83.9814 62.9768 83.5516 63.2926C83.1524 63.5778 82.845 63.921 82.6309 64.3222C82.4168 64.7234 82.267 65.1584 82.1833 65.6256C82.0996 66.0929 82.0578 66.5715 82.0578 67.0581V73.2436H80.0166Z" fill="white"/>
<path d="M93.597 73.5869C92.3462 73.5869 91.2854 73.3065 90.4146 72.7474C89.5453 72.1883 88.882 71.4181 88.4249 70.4385C87.9693 69.4605 87.7359 68.3407 87.7246 67.0807C87.7359 65.7982 87.9742 64.6687 88.4426 63.6907C88.9095 62.7143 89.5807 61.9505 90.4548 61.3995C91.3289 60.8501 92.3832 60.5762 93.6195 60.5762C94.9154 60.5762 96.0326 60.8951 96.9711 61.5348C97.9096 62.1729 98.5405 63.0478 98.8641 64.1595L96.8567 64.7637C96.5943 64.0483 96.1726 63.4941 95.5915 63.0977C95.0103 62.703 94.3455 62.5048 93.597 62.5048C92.7518 62.5048 92.0565 62.6998 91.5092 63.0913C90.9619 63.4844 90.5562 64.0242 90.289 64.7122C90.0234 65.4018 89.8866 66.1913 89.8785 67.0807C89.8898 68.4551 90.2069 69.5604 90.8282 70.3998C91.4496 71.2376 92.3719 71.6582 93.597 71.6582C94.3986 71.6582 95.0651 71.4729 95.5979 71.1039C96.1291 70.735 96.5348 70.2 96.8117 69.5007L98.8641 70.0373C98.4343 71.1861 97.7678 72.0643 96.8632 72.6733C95.9585 73.2824 94.8687 73.5869 93.597 73.5869Z" fill="white"/>
<path d="M106.354 73.5869C105.141 73.5869 104.085 73.3194 103.184 72.7845C102.282 72.2496 101.582 71.5003 101.083 70.5368C100.584 69.5717 100.333 68.4471 100.333 67.1613C100.333 65.8143 100.579 64.6477 101.072 63.6632C101.565 62.6772 102.253 61.9167 103.14 61.3801C104.029 60.8436 105.069 60.5762 106.263 60.5762C107.498 60.5762 108.551 60.8614 109.422 61.4317C110.291 62.0021 110.946 62.8157 111.386 63.8743C111.825 64.9313 112.012 66.1913 111.947 67.651H109.9V66.9212C109.877 65.4066 109.57 64.2756 108.976 63.5263C108.383 62.7771 107.501 62.4017 106.331 62.4017C105.072 62.4017 104.118 62.8045 103.466 63.6117C102.814 64.4173 102.488 65.5742 102.488 67.0807C102.488 68.5341 102.814 69.6603 103.466 70.4594C104.118 71.2586 105.05 71.6582 106.263 71.6582C107.076 71.6582 107.783 71.4713 108.383 71.0991C108.984 70.7253 109.455 70.1888 109.797 69.4895L111.748 70.163C111.265 71.2506 110.544 72.0932 109.584 72.691C108.623 73.2872 107.548 73.5869 106.354 73.5869ZM101.804 67.651V66.0189H110.904V67.651H101.804Z" fill="white"/>
<path d="M15.5487 92.4929L11.7852 80.1558L13.8038 80.167L16.5516 89.1835L19.3172 80.167H21.1072L23.8727 89.1835L26.6319 80.167H28.6376L24.8756 92.4929H23.1886L20.2122 83.1236L17.2357 92.4929H15.5487Z" fill="white"/>
<path d="M35.9141 92.8361C34.7003 92.8361 33.6443 92.5687 32.7428 92.0337C31.843 91.4988 31.1428 90.7496 30.6422 89.7845C30.1431 88.821 29.8936 87.6963 29.8936 86.4106C29.8936 85.0636 30.1382 83.897 30.6308 82.9126C31.1234 81.9265 31.8124 81.166 32.701 80.6295C33.588 80.0929 34.6278 79.8254 35.8223 79.8254C37.0569 79.8254 38.1097 80.1106 38.9806 80.681C39.8515 81.2514 40.5051 82.0651 40.9445 83.1237C41.384 84.1806 41.5707 85.4406 41.5063 86.9004H39.4587V86.1705C39.4362 84.656 39.1288 83.5248 38.5364 82.7756C37.9424 82.0248 37.0618 81.651 35.8899 81.651C34.6327 81.651 33.6781 82.0538 33.0262 82.8611C32.3742 83.6667 32.0475 84.8235 32.0475 86.33C32.0475 87.7833 32.3742 88.9096 33.0262 89.7088C33.6781 90.508 34.6101 90.9059 35.8223 90.9059C36.6352 90.9059 37.3419 90.7206 37.9423 90.3468C38.5443 89.9746 39.0144 89.4381 39.3573 88.7388L41.3067 89.4123C40.8238 90.4999 40.1027 91.3425 39.1432 91.9403C38.1838 92.5364 37.1069 92.8361 35.9141 92.8361ZM31.3633 86.9004V85.2682H40.4632V86.9004H31.3633Z" fill="white"/>
<path d="M47.7355 92.8361C46.8163 92.8361 46.0452 92.667 45.4239 92.3303C44.8025 91.9935 44.3357 91.5472 44.0218 90.9897C43.7079 90.4322 43.5518 89.8231 43.5518 89.1609C43.5518 88.5132 43.6741 87.9541 43.9187 87.4804C44.165 87.0067 44.5127 86.6104 44.9619 86.2929C45.4126 85.9755 45.9503 85.7258 46.5733 85.5421C47.1576 85.3874 47.8127 85.2488 48.5371 85.1296C49.2615 85.0088 49.9955 84.9009 50.7408 84.8042C51.4862 84.7075 52.1832 84.6109 52.8335 84.5158L52.1028 84.9379C52.1221 83.8455 51.9031 83.0366 51.4443 82.5098C50.9872 81.9829 50.1952 81.7186 49.0699 81.7186C48.3246 81.7186 47.6727 81.8894 47.1109 82.2294C46.5507 82.571 46.1595 83.1188 45.9342 83.8761L44.0073 83.2945C44.3003 82.2133 44.8733 81.3658 45.7265 80.7487C46.5797 80.1332 47.7017 79.8254 49.0925 79.8254C50.2064 79.8254 51.1643 80.0236 51.9659 80.4232C52.7676 80.8228 53.3455 81.427 53.6996 82.2326C53.8735 82.6129 53.9845 83.0254 54.0296 83.4717C54.0763 83.9164 54.0988 84.3821 54.0988 84.8686V92.493H52.2975V89.5363L52.7192 89.8119C52.2556 90.8108 51.6053 91.5649 50.7715 92.074C49.9376 92.5816 48.9251 92.8361 47.7355 92.8361ZM48.0445 91.1347C48.7737 91.1347 49.4064 91.0042 49.9424 90.7448C50.4785 90.4837 50.9099 90.1374 51.2367 89.7056C51.5634 89.2738 51.776 88.8033 51.8758 88.2925C51.9852 87.9123 52.0464 87.4901 52.0609 87.0228C52.0737 86.5572 52.0802 86.1962 52.0802 85.9417L52.7869 86.2511C52.1253 86.3462 51.4749 86.4347 50.8342 86.5185C50.1935 86.6023 49.5883 86.6909 49.0185 86.7843C48.4486 86.8778 47.9367 86.989 47.486 87.1179C47.1463 87.2243 46.8324 87.3612 46.541 87.532C46.2513 87.7012 46.0162 87.9171 45.8376 88.1797C45.6589 88.4423 45.5687 88.7646 45.5687 89.1497C45.5687 89.488 45.6541 89.8086 45.8231 90.1099C45.9921 90.4129 46.2577 90.6594 46.6215 90.8495C46.9837 91.0396 47.4586 91.1347 48.0445 91.1347Z" fill="white"/>
<path d="M60.4501 92.4929L55.9814 80.167H58.0339L61.4884 89.902L64.9317 80.167H66.9954L62.5267 92.4929H60.4501Z" fill="white"/>
<path d="M74.0419 92.8361C72.8282 92.8361 71.7722 92.5687 70.8723 92.0337C69.9709 91.4988 69.2706 90.7496 68.7716 89.7845C68.2709 88.821 68.0215 87.6963 68.0215 86.4106C68.0215 85.0636 68.2678 83.897 68.7588 82.9126C69.2513 81.9265 69.9419 81.166 70.8289 80.6295C71.7158 80.0929 72.7574 79.8254 73.9502 79.8254C75.1849 79.8254 76.2376 80.1106 77.1085 80.681C77.9793 81.2514 78.6345 82.0651 79.0724 83.1237C79.5119 84.1806 79.6985 85.4406 79.6342 86.9004H77.5882V86.1705C77.564 84.656 77.2566 83.5248 76.6642 82.7756C76.0718 82.0248 75.1897 81.651 74.0194 81.651C72.7605 81.651 71.806 82.0538 71.154 82.8611C70.5021 83.6667 70.1769 84.8235 70.1769 86.33C70.1769 87.7833 70.5021 88.9096 71.154 89.7088C71.806 90.508 72.7381 90.9059 73.9502 90.9059C74.7631 90.9059 75.4714 90.7206 76.0718 90.3468C76.6722 89.9746 77.1423 89.4381 77.4852 88.7388L79.4346 89.4123C78.9517 90.4999 78.2305 91.3425 77.2711 91.9403C76.3117 92.5364 75.2348 92.8361 74.0419 92.8361ZM69.4927 86.9004V85.2682H78.591V86.9004H69.4927Z" fill="white"/>
<path d="M82.2725 92.4928V80.1669H84.0851V83.1461L83.7888 82.7577C83.9321 82.3775 84.1204 82.0279 84.3522 81.7072C84.584 81.3882 84.8448 81.1256 85.133 80.921C85.4485 80.6648 85.8091 80.4698 86.2148 80.3329C86.6188 80.1959 87.0309 80.1137 87.4478 80.088C87.8663 80.0606 88.2575 80.0879 88.6229 80.1669V82.073C88.198 81.9634 87.7295 81.9344 87.2176 81.9875C86.7057 82.0407 86.2357 82.2244 85.8059 82.5402C85.4083 82.827 85.1008 83.1702 84.8851 83.5714C84.671 83.9726 84.5213 84.4077 84.4376 84.8749C84.3555 85.3422 84.3137 85.8207 84.3137 86.3073V92.4928H82.2725Z" fill="white"/>
<path d="M95.2465 92.8249C93.7768 92.8249 92.5726 92.5026 91.6358 91.8597C90.6989 91.2168 90.1243 90.3162 89.9102 89.1609L91.9867 88.8291C92.1541 89.4993 92.5372 90.0294 93.1377 90.4209C93.7381 90.8141 94.4834 91.009 95.372 91.009C96.2123 91.009 96.8723 90.835 97.3536 90.4869C97.8349 90.1389 98.0748 89.6621 98.0748 89.0578C98.0748 88.7114 97.9959 88.4294 97.8349 88.2135C97.6756 87.996 97.3472 87.793 96.8498 87.6029C96.3507 87.4127 95.6006 87.1823 94.5978 86.9116C93.5096 86.6232 92.6532 86.3236 92.0286 86.0126C91.404 85.7033 90.9597 85.3423 90.6941 84.9314C90.4301 84.5206 90.2981 84.0211 90.2981 83.4314C90.2981 82.708 90.4961 82.0763 90.8921 81.5334C91.2865 80.992 91.8386 80.5715 92.5469 80.2734C93.2568 79.9737 94.0842 79.8254 95.0308 79.8254C95.966 79.8254 96.8015 79.9737 97.5356 80.2734C98.2712 80.5715 98.8652 80.992 99.3175 81.5334C99.7699 82.0763 100.04 82.708 100.127 83.4314L98.0523 83.8084C97.9541 83.1494 97.6353 82.629 97.0977 82.2472C96.56 81.8653 95.8711 81.6623 95.0308 81.6397C94.2323 81.6123 93.5836 81.7557 93.0862 82.0667C92.5888 82.3793 92.3392 82.7998 92.3392 83.3283C92.3392 83.6296 92.431 83.8842 92.6162 84.0969C92.7997 84.3063 93.1457 84.5077 93.6544 84.6978C94.1615 84.888 94.8972 85.1055 95.863 85.3488C96.9464 85.6259 97.8011 85.9256 98.4289 86.2479C99.0551 86.5685 99.5026 86.9487 99.7714 87.3886C100.039 87.8284 100.172 88.365 100.172 89.0014C100.172 90.1921 99.736 91.1266 98.8619 91.805C97.9879 92.4849 96.7822 92.8249 95.2465 92.8249Z" fill="white"/>
</svg>
