<svg width="78" height="107" viewBox="0 0 78 107" fill="none" xmlns="http://www.w3.org/2000/svg">
<g clip-path="url(#clip0_139_357)">
<path fill-rule="evenodd" clip-rule="evenodd" d="M18.7909 37.5145C16.6517 34.291 15.3199 30.605 14.9112 26.7423C14.1048 25.7428 13.6047 24.4587 13.2732 23.2531C12.7359 21.3014 12.5062 19.1359 12.4397 17.1122C12.3872 15.5166 12.8949 13.9888 13.8746 12.7285C14.8663 11.4533 16.2132 10.5935 17.8336 10.4172C18.2819 10.3683 18.7305 10.3209 19.1793 10.2751C19.9824 9.13614 20.8833 8.0669 21.8704 7.08198C26.426 2.53431 32.5533 0 38.997 0C45.4407 0 51.5681 2.53431 56.1241 7.08198C57.1112 8.0669 58.0118 9.13614 58.8152 10.2751C59.2638 10.3209 59.712 10.3683 60.1602 10.4172C61.7806 10.5939 63.1275 11.4533 64.1192 12.7285C65.0989 13.9888 65.6068 15.5166 65.554 17.1122C65.4877 19.1359 65.2578 21.3014 64.7205 23.2527C64.3892 24.4583 63.8893 25.742 63.0835 26.7416C62.6751 30.6046 61.3428 34.291 59.2037 37.5149C60.1965 38.2992 61.1438 39.1413 62.0398 40.0353C62.1073 40.1027 62.1748 40.1709 62.2415 40.239C62.3626 40.3295 62.476 40.435 62.5813 40.5544L63.1202 41.1673C66.4454 44.8159 68.8819 49.1453 70.2635 53.8312C69.6047 53.7122 68.9321 53.912 68.4268 54.401C67.9601 54.8535 67.4856 55.2989 67.0054 55.7375C66.418 56.2738 65.5432 56.3027 64.9211 55.8068C63.7122 54.8427 62.2222 54.4488 60.6759 54.6917L58.536 55.0271C58.0118 55.1091 57.5609 55.3732 57.2427 55.7494C56.9353 56.1125 56.5291 56.3062 56.0528 56.317C55.5764 56.3274 55.1622 56.1518 54.8386 55.8022C53.6645 54.5335 51.9087 53.8435 50.0746 54.0961L47.5386 54.4449C46.5438 54.582 45.6424 54.9728 44.8996 55.5534C44.2894 56.0309 43.4466 56.0105 42.8603 55.5042C42.5969 55.277 42.279 55.1226 41.9126 55.046L39.4684 54.5358C37.9719 54.2239 36.4938 54.5227 35.2373 55.3917C35.2083 55.4118 35.1795 55.4325 35.1512 55.4526C34.5171 55.9081 33.667 55.848 33.1034 55.3082C32.0092 54.2605 30.4887 53.6668 28.8748 53.7985L27.0439 53.9478C26.3351 54.0056 25.7329 54.3972 25.3932 54.9713C24.9861 55.659 24.1499 55.9412 23.4082 55.6405C22.4211 55.2404 21.3498 55.1465 20.265 55.3725L17.7722 55.8919C17.2175 56.0074 16.6861 55.8449 16.2918 55.4383C15.8321 54.9647 15.2787 54.5708 14.6466 54.2771L14.0523 54.001C13.2398 53.624 12.3255 53.7784 11.6823 54.401C11.2153 54.8535 10.741 55.2989 10.2608 55.7375C9.67356 56.2738 8.79842 56.3027 8.1765 55.8068C7.9134 55.597 7.6372 55.4141 7.34961 55.2589C8.75445 49.5434 11.7003 44.2819 15.9539 40.0353C16.8498 39.1409 17.7974 38.2992 18.7909 37.5145Z" fill="#FFCB03"/>
<path fill-rule="evenodd" clip-rule="evenodd" d="M28.789 27.4776C28.5529 27.5099 28.3323 27.5278 28.1261 27.5339C27.5989 27.5689 27.0657 27.5828 26.5396 27.5846C26.4582 27.8843 26.3938 28.191 26.3488 28.5026C26.297 28.8661 26.2715 29.2367 26.2917 29.5997C26.3106 29.9413 26.372 30.2829 26.4933 30.6113V30.6184C26.5954 30.9027 26.769 31.1681 26.9891 31.3971C27.2264 31.6444 27.5122 31.8459 27.819 31.9824L27.8405 31.9932C27.9909 32.0651 28.1544 32.1232 28.3237 32.1721C28.4918 32.2205 28.6697 32.2612 28.8499 32.2987C29.1349 32.3333 29.4485 32.2145 29.7424 32.103L29.7763 32.0888C30.3917 31.8134 30.9901 31.442 31.5824 31.075L31.8432 30.9158C37.7408 27.2264 40.2316 27.2132 46.1496 30.9158L46.4107 31.075C47.0028 31.442 47.6014 31.8134 48.2166 32.0888L48.2506 32.103C48.5445 32.2145 48.8581 32.3333 49.1431 32.2987C49.3232 32.2612 49.501 32.2205 49.6692 32.1721C49.8385 32.1232 50.0021 32.0651 50.1525 31.9932L50.1741 31.9824C50.4807 31.8459 50.7665 31.6444 51.0038 31.3971C51.224 31.1681 51.3976 30.9027 51.4998 30.6184V30.6113C51.6209 30.2829 51.6822 29.9413 51.7011 29.5997C51.7216 29.2367 51.6961 28.8661 51.644 28.5026C51.5993 28.191 51.5349 27.8843 51.4535 27.5846C50.9274 27.5831 50.394 27.5689 49.8667 27.5339C49.6607 27.5276 49.4401 27.5099 49.2044 27.4776C47.7831 27.3283 46.4539 26.992 45.5055 26.2869C44.5813 25.5932 43.8754 24.7054 43.3061 23.6961C39.6195 17.1616 38.373 17.1616 34.6867 23.6961C34.1174 24.7054 33.4115 25.5932 32.4874 26.2869C31.539 26.9917 30.2105 27.3283 28.789 27.4776ZM73.4302 81.7344C74.0037 82.4787 74.3763 83.3743 74.5051 84.3608C74.7497 86.2401 74.0411 88.0452 72.582 89.2577L72.4312 89.3828C71.9672 89.7682 71.8515 90.392 72.1442 90.9183L77.7197 100.923C78.0163 101.455 78.0718 102.024 77.884 102.603C77.6961 103.183 77.317 103.611 76.7646 103.869L73.598 105.346C72.2472 105.976 70.7815 106.036 69.3837 105.519C68.2724 105.107 67.3733 104.398 66.7419 103.445C66.5934 104.244 65.9956 104.898 65.1686 105.103L63.6362 105.483C61.9788 105.893 60.3148 105.542 58.9664 104.496C58.7843 104.355 58.6131 104.205 58.453 104.047C58.1147 103.713 57.6947 103.557 57.2207 103.588C56.7462 103.619 56.3501 103.829 56.0585 104.203C55.7233 104.634 55.3172 105.018 54.8454 105.346C53.7967 106.075 52.6357 106.594 51.3783 106.836C49.0663 107.282 46.8971 106.684 44.9589 105.385C43.8191 104.62 42.8575 103.682 42.0607 102.611C41.7475 102.19 41.2954 101.963 40.7705 101.964C40.2451 101.965 39.7934 102.193 39.4818 102.614C38.9098 103.388 38.1666 104.068 37.2474 104.639C34.9857 106.042 31.6716 106.603 29.0624 106.895C25.8216 107.257 22.4724 106.688 20.5253 103.826C20.5159 103.813 20.5081 103.801 20.499 103.787C20.0446 103.085 19.7176 102.329 19.4925 101.541C19.3315 100.978 18.915 100.574 18.3464 100.429C17.7781 100.284 17.2183 100.439 16.8066 100.856C16.2438 101.427 15.6346 101.956 14.9876 102.446C13.9131 103.334 12.7286 104.065 11.4848 104.621C10.0168 105.334 8.43432 105.854 6.8033 106.184C5.17232 106.513 3.56228 106.118 2.27119 105.07C0.976281 104.019 0.263371 102.534 0.253767 100.868L0.171147 86.5451C0.166326 86.3191 0.161273 86.0773 0.15649 85.8355C0.119076 84.0069 0.987891 82.359 2.36596 81.339C2.78442 81.0291 3.0111 80.5832 3.01465 80.063C3.0182 79.5432 2.79757 79.0942 2.38339 78.7789C2.32905 78.7377 2.27497 78.6961 2.22217 78.6549C0.871908 77.6076 0.121352 76.0886 0.110475 74.3818L4.59962e-05 57.1306C-0.00678109 56.076 0.747091 55.1904 1.79079 55.0268L3.93098 54.6914C5.47734 54.4488 6.9673 54.8427 8.17604 55.8069C8.50961 56.0729 8.91622 56.188 9.31223 56.1542C10.6183 50.5191 13.4931 45.484 17.4523 41.5312C18.7682 40.2177 20.2041 39.0235 21.7421 37.967C19.0318 34.5914 17.2949 30.4037 16.9563 25.8278C16.2264 25.1956 15.6919 24.0574 15.3164 22.6923C14.8466 20.9857 14.6192 18.9204 14.5575 17.0427C14.5211 15.9376 14.857 14.9154 15.5486 14.0256C16.2403 13.1361 17.0922 12.6263 18.0631 12.5203C18.7753 12.4429 19.5607 12.3609 20.3808 12.2817C21.2422 10.9409 22.2452 9.69917 23.3686 8.57787C27.3682 4.58542 32.8937 2.11572 38.9966 2.11572C45.0993 2.11572 50.6254 4.58542 54.6248 8.57787C55.7484 9.69917 56.7512 10.9409 57.6125 12.2817C58.4326 12.3609 59.2179 12.4429 59.9299 12.5203C60.9003 12.6263 61.7524 13.1361 62.444 14.0256C63.1359 14.9154 63.4719 15.9376 63.4356 17.0427C63.3739 18.9204 63.146 20.9857 62.6765 22.6923C62.3012 24.0571 61.7666 25.1951 61.0377 25.8273C60.699 30.4034 58.9614 34.5916 56.251 37.9672C57.7888 39.024 59.2244 40.2177 60.5405 41.5312C64.1222 45.1067 66.8156 49.5681 68.264 54.5582L68.4263 54.4011C69.0697 53.7781 69.9838 53.6237 70.7965 54.001L71.3909 54.2771C73.1193 55.0795 74.2595 56.6328 74.5051 58.5198C74.7501 60.3992 74.0415 62.2046 72.582 63.4171L72.4316 63.5422C71.9676 63.9277 71.8515 64.551 72.1446 65.0778L77.7197 75.0826C78.0163 75.6147 78.0722 76.1834 77.8844 76.7625C77.6961 77.3419 77.3174 77.7705 76.765 78.0277L74.0226 79.3072C73.5667 79.5197 73.2624 79.8909 73.1432 80.3787C73.024 80.867 73.1235 81.3359 73.4302 81.7344ZM12.0968 54.0846C12.6862 53.7377 13.4016 53.6992 14.0519 54.001L14.6462 54.2771C15.2782 54.5705 15.8317 54.9648 16.2914 55.438C16.6856 55.8446 17.217 56.0071 17.7717 55.8916L20.2645 55.3722C20.5902 55.3044 20.9145 55.2655 21.2359 55.2551C21.1464 54.9571 21.0529 54.6598 20.9554 54.363C19.9519 51.3062 18.5322 48.3056 16.774 45.4659C14.7466 48.018 13.1507 50.9277 12.0968 54.0846ZM23.5611 55.6937C24.2619 55.9004 25.0135 55.6116 25.3928 54.9709C25.7324 54.3972 26.3346 54.0057 27.0435 53.9479L28.8743 53.7985C30.4882 53.6668 32.0088 54.2602 33.103 55.3082C33.6665 55.8477 34.5167 55.9077 35.1507 55.4526C35.179 55.4322 35.2078 55.4118 35.2369 55.3918C36.4934 54.5224 37.9715 54.2236 39.4679 54.5359L41.9122 55.046C42.2786 55.1223 42.5964 55.2767 42.8599 55.5038C43.4461 56.0102 44.2889 56.0306 44.8991 55.5535C45.642 54.9725 46.5434 54.5817 47.5381 54.4446L50.0742 54.0958C51.7374 53.867 53.3362 54.413 54.4952 55.463C54.6576 54.877 54.8343 54.2925 55.0256 53.7099C56.1495 50.2866 57.7657 46.9364 59.7764 43.7887C59.5361 43.5307 59.2915 43.2766 59.042 43.0275C57.7564 41.7442 56.3482 40.584 54.8362 39.5654C54.7664 39.637 54.6958 39.7086 54.6248 39.7795C50.6254 43.7722 45.0993 46.2418 38.9966 46.2418C32.8937 46.2418 27.3682 43.7722 23.3686 39.7795C23.2975 39.7086 23.2273 39.637 23.157 39.5651C21.6448 40.584 20.2364 41.7442 18.9509 43.0271C18.7015 43.2762 18.4566 43.53 18.2165 43.7883C20.2273 46.936 21.8437 50.2862 22.9675 53.7099C23.1838 54.3687 23.3817 55.0302 23.5611 55.6937ZM56.472 56.2554C56.7694 56.1707 57.0293 56.0005 57.2423 55.7491C57.5605 55.3729 58.0114 55.1088 58.5355 55.0268L60.6755 54.6914C62.2218 54.4488 63.7118 54.8427 64.9206 55.8069C65.3746 56.1688 65.9632 56.2508 66.4762 56.0606C65.4803 52.1382 63.6632 48.5428 61.2189 45.4663C59.4609 48.306 58.0415 51.3062 57.0378 54.363C56.8315 54.9917 56.6425 55.6224 56.472 56.2554ZM38.9966 14.0642C38.156 14.075 37.4835 13.9973 36.0499 13.5528C34.3719 13.0287 30.6651 11.678 25.9876 11.8685C25.0892 11.9048 24.1193 11.9656 23.1388 12.0408C23.6718 11.3478 24.2492 10.6909 24.8671 10.0741C28.4829 6.46459 33.4785 4.232 38.9966 4.232C44.5149 4.232 49.5107 6.46459 53.1259 10.0741C53.7439 10.6909 54.3217 11.3478 54.8547 12.0408C53.8738 11.9656 52.9038 11.9048 52.0051 11.8685C47.3279 11.678 43.6213 13.0287 41.943 13.5528C40.5093 13.9973 39.837 14.075 38.9966 14.0642ZM19.1834 26.7801C20.8227 27.2428 22.7155 27.4882 24.6505 27.5503L24.6713 27.551C24.6202 27.7811 24.5775 28.0129 24.5439 28.2463V28.2496C24.4777 28.7183 24.4451 29.2054 24.4724 29.6993C24.5012 30.215 24.595 30.7334 24.7812 31.2377L24.7835 31.237C24.9763 31.7705 25.2884 32.2531 25.6766 32.6577C26.073 33.071 26.5557 33.4095 27.0774 33.6413C27.3243 33.7574 27.5709 33.8457 27.817 33.9168C28.0584 33.9864 28.2954 34.0396 28.5297 34.0878L28.5868 34.0987C28.6239 34.1037 28.6601 34.1083 28.6962 34.1118C29.6396 35.4329 30.6916 36.4049 32.0022 37.0934C35.3723 38.8638 42.6207 38.8638 45.9907 37.0934C47.3013 36.4049 48.3535 35.4329 49.2966 34.1118C49.3329 34.1083 49.3691 34.1037 49.4061 34.0987L49.4632 34.0878C49.6974 34.0396 49.9346 33.9864 50.176 33.9168C50.4221 33.8457 50.6686 33.7574 50.9158 33.6413C51.4373 33.4095 51.9198 33.071 52.3163 32.6577C52.7044 32.2531 53.0168 31.7705 53.2096 31.237L53.212 31.2377C53.3979 30.7334 53.4916 30.215 53.5205 29.6993C53.5479 29.2054 53.5151 28.7183 53.4492 28.2496V28.2463C53.4156 28.0129 53.3728 27.7811 53.3215 27.551L53.3423 27.5503C55.2778 27.4882 57.1705 27.2428 58.8098 26.7801C58.227 31.2483 56.163 35.2518 53.1259 38.2836C49.5107 41.8928 44.5149 44.1256 38.9966 44.1256C33.4785 44.1256 28.4829 41.8928 24.8671 38.2836C21.8303 35.2518 19.7664 31.248 19.1834 26.7801ZM32.8056 32.4597L32.5448 32.6188C31.9577 32.9847 31.3641 33.3527 30.6648 33.6799C31.3143 34.4564 32.0239 35.0495 32.851 35.4839C35.6764 36.9685 42.3168 36.9685 45.1421 35.4839C45.9691 35.0495 46.6788 34.4564 47.3283 33.6799C46.629 33.3527 46.0354 32.9847 45.4484 32.6188L45.1872 32.4597C39.8899 29.1713 38.1747 29.1265 32.8056 32.4597Z" fill="black"/>
<path d="M28.5244 32.1305L28.5871 32.241C28.6735 32.2614 28.7615 32.2807 28.8499 32.2988C29.135 32.3334 29.4486 32.2148 29.7425 32.1032L29.7764 32.0889C30.3917 31.8136 30.9901 31.4421 31.5825 31.0751L31.8433 30.9161C37.7408 27.2267 40.2317 27.2132 46.1496 30.9161L46.4108 31.0751C47.0028 31.4421 47.6015 31.8136 48.2167 32.0889L48.2506 32.1032C48.5445 32.2148 48.8581 32.3334 49.1431 32.2988C49.2353 32.2799 49.3267 32.2599 49.4162 32.2383L49.461 32.1305C49.461 32.1305 49.2427 32.0731 48.8585 31.9811V31.9749C48.8585 28.9871 44.4413 26.5652 38.9928 26.5652C33.5438 26.5652 29.1269 28.9871 29.1269 31.9749V31.9811C28.74 32.0731 28.5244 32.1305 28.5244 32.1305ZM32.8056 32.4597L32.5448 32.6191C31.9577 32.9849 31.3641 33.353 30.6649 33.6799C31.3144 34.4565 32.024 35.0498 32.8511 35.4842C35.6764 36.9685 42.3168 36.9685 45.1422 35.4842C45.9691 35.0498 46.6788 34.4565 47.3284 33.6799C46.6291 33.353 46.0355 32.9849 45.4484 32.6191L45.1873 32.4597C39.8899 29.1715 38.1747 29.1264 32.8056 32.4597Z" fill="#E34519"/>
<path d="M28.7894 27.4774C28.5534 27.5098 28.3327 27.5279 28.1265 27.534C27.5993 27.5691 27.0661 27.5829 26.54 27.5845C26.4586 27.8844 26.3942 28.1909 26.3492 28.5024C26.2974 28.8663 26.2719 29.2367 26.2921 29.5998C26.311 29.9413 26.3724 30.2828 26.4937 30.6113V30.6182C26.5958 30.9027 26.7694 31.168 26.9896 31.3971C27.2269 31.6443 27.5127 31.8461 27.8195 31.9824L27.8409 31.9932C27.9913 32.0652 28.1548 32.1233 28.3241 32.1722C28.4922 32.2207 28.6701 32.2611 28.8503 32.2989C29.1354 32.3331 29.4489 32.2146 29.7428 32.1029L29.7767 32.0886C30.3921 31.8133 30.9905 31.4422 31.5828 31.0748L31.8437 30.9158C37.7412 27.2264 40.232 27.2133 46.15 30.9158L46.4111 31.0748C47.0032 31.4422 47.6018 31.8133 48.217 32.0886L48.251 32.1029C48.5449 32.2146 48.8585 32.3331 49.1435 32.2989C49.3236 32.2611 49.5014 32.2207 49.6696 32.1722C49.8389 32.1233 50.0025 32.0652 50.1529 31.9932L50.1745 31.9824C50.4811 31.8461 50.767 31.6443 51.0042 31.3971C51.2244 31.168 51.398 30.9027 51.5002 30.6182V30.6113C51.6213 30.2828 51.6826 29.9413 51.7015 29.5998C51.722 29.2367 51.6965 28.8663 51.6445 28.5024C51.5997 28.1909 51.5353 27.8844 51.4539 27.5845C50.9278 27.5829 50.3944 27.5691 49.8671 27.534C49.6611 27.5275 49.4405 27.5098 49.2048 27.4774C47.7835 27.3284 46.4543 26.9919 45.5059 26.2869C44.5817 25.5931 43.8758 24.7056 43.3065 23.696C39.6199 17.1616 38.3734 17.1616 34.6872 23.696C34.1178 24.7056 33.412 25.5931 32.4878 26.2869C31.5394 26.9915 30.2109 27.3284 28.7894 27.4774Z" fill="#F26F1D"/>
<path fill-rule="evenodd" clip-rule="evenodd" d="M54.3931 25.2657C54.9609 25.2226 55.5495 25.1579 56.1226 25.0674C56.4324 23.3024 56.7552 21.5366 57.0518 19.7728C57.3488 18.007 57.6458 16.2428 57.9297 14.4774C57.4028 14.4227 56.8763 14.3726 56.3448 14.326C56.0401 16.1504 55.7246 17.975 55.4048 19.7966C55.0847 21.6206 54.7341 23.4429 54.3931 25.2657ZM57.0931 24.8884C57.3978 24.8256 57.6921 24.7544 57.981 24.6739C58.2652 23.004 58.5514 21.3345 58.8226 19.6646C59.0934 17.9954 59.3545 16.3248 59.6075 14.6533C59.3441 14.6256 59.0702 14.5967 58.8176 14.5679C58.5491 16.2893 58.2649 18.0089 57.981 19.7289C57.6971 21.4488 57.3928 23.1688 57.0931 24.8884ZM30.4591 14.363C29.922 16.1958 29.3845 18.0305 28.838 19.8613C28.2901 21.696 27.7227 23.5269 27.1497 25.3593C26.5457 25.3754 25.9675 25.3677 25.4668 25.3531C26.0551 23.4849 26.6483 21.6167 27.222 19.7466C27.7943 17.8807 28.3527 16.0087 28.9153 14.1389C29.4367 14.1936 29.948 14.2694 30.4591 14.363ZM32.0647 14.7068C31.5691 16.4603 31.0676 18.2176 30.5571 19.968C30.0455 21.7214 29.5142 23.4734 28.9875 25.2257C28.7089 25.2642 28.4093 25.293 28.1152 25.3142C28.6675 23.5188 29.2144 21.7214 29.7466 19.9241C30.2777 18.1306 30.7945 16.3298 31.3109 14.5324C31.5587 14.5856 31.8116 14.6437 32.0647 14.7068Z" fill="white"/>
<path d="M2.12305 57.1171L4.26324 56.7816C5.28117 56.6222 6.22204 56.8957 6.99481 57.576C7.76762 58.2564 8.15731 59.1537 8.12622 60.1819C8.12444 60.2455 8.12267 60.3076 8.1214 60.3687C9.97482 58.8634 11.6535 57.3803 13.1615 55.9196L13.7559 56.1956C14.8259 56.6926 15.5102 57.6247 15.6623 58.793C15.8147 59.961 15.3922 61.0369 14.4852 61.7907L14.3346 61.9158C13.0864 62.9529 12.762 64.6895 13.5514 66.1063L19.1265 76.1113L15.9598 77.5886C15.1177 77.9813 14.2514 78.0169 13.3801 77.6943C12.5087 77.3716 11.8749 76.781 11.4931 75.9352L7.70923 67.554C7.64227 70.8651 7.70923 74.0795 7.9172 77.2089L6.38477 77.5886C5.35573 77.8436 4.36333 77.6337 3.52611 76.9844C2.68889 76.3348 2.2403 75.4268 2.23348 74.3683L2.12305 57.1171ZM41.4822 57.1171C39.7148 62.6159 38.3351 68.7626 37.3435 75.5543C37.1373 76.967 36.1201 78.0477 34.7206 78.3411L34.3554 78.4175C33.4095 78.6158 32.5204 78.4314 31.7322 77.8734C30.9438 77.3151 30.4755 76.5386 30.3502 75.582L29.5188 69.2337L28.1817 78.7142L25.6887 78.8663C23.9535 78.9722 22.4363 77.7477 22.1765 76.0321C21.2829 70.1322 19.8904 64.1222 17.9974 58.0069L20.7011 57.4436C21.6187 57.2524 22.478 57.4209 23.255 57.9438C24.0321 58.467 24.5105 59.1991 24.677 60.1199L25.9532 67.1797L27.2196 56.0566L29.0505 55.9073C30.8422 55.761 32.4297 57.0546 32.6448 58.8364L33.7342 67.8656L35.0463 59.3674C35.1914 58.4277 35.6647 57.6724 36.4476 57.1308C37.2305 56.5891 38.1051 56.4126 39.0375 56.607L41.4822 57.1171ZM40.5237 77.7874C42.4233 71.5896 43.9133 65.4178 44.9925 59.2725C45.2479 57.8189 46.3664 56.7423 47.831 56.5407L50.367 56.1918C52.1409 55.9479 53.791 57.1394 54.1142 58.8972C54.9474 63.4264 56.167 68.4221 57.7708 73.8852C58.0396 74.8005 57.9304 75.6879 57.4483 76.5111C56.9658 77.3345 56.2441 77.8641 55.3134 78.0787L52.5575 78.7142L52.3666 77.8267C52.0051 76.1456 50.4442 75.0209 48.732 75.2079L47.6547 75.3254L47.566 75.8015C47.3944 76.7243 46.9091 77.4559 46.1254 77.9745C45.3416 78.4929 44.4776 78.6542 43.5592 78.4528L40.5237 77.7874ZM50.8415 70.8429L49.4379 62.6971L48.067 70.8762L50.8415 70.8429ZM58.8677 57.1171L61.008 56.7816C62.0259 56.6222 62.9667 56.8957 63.7393 57.576C64.5122 58.2564 64.9018 59.1537 64.8709 60.1819C64.869 60.2455 64.8675 60.3076 64.8659 60.3687C66.7193 58.8634 68.3983 57.3803 69.906 55.9196L70.5004 56.1956C71.5704 56.6926 72.255 57.6247 72.407 58.793C72.5593 59.961 72.137 61.0369 71.2298 61.7907L71.0793 61.9158C69.8312 62.9529 69.5064 64.6895 70.296 66.1063L75.871 76.1113L72.7043 77.5886C71.8623 77.9813 70.996 78.0169 70.1247 77.6943C69.2534 77.3716 68.6197 76.781 68.2378 75.9352L64.454 67.554C64.3869 70.8651 64.454 74.0795 64.6619 77.2089L63.1294 77.5886C62.1004 77.8436 61.1079 77.6337 60.2706 76.9844C59.4336 76.3348 58.985 75.4268 58.978 74.3683L58.8677 57.1171ZM5.29028 82.4006C6.78001 82.2515 8.13505 82.2346 9.35463 82.3423C11.6867 82.5484 13.5403 83.1877 14.911 84.2593C16.8981 85.809 18.1088 87.5663 18.5432 89.5277C18.703 90.3065 18.7623 91.0701 18.7141 91.8229C18.6029 93.5099 18.1793 95.052 17.4477 96.4423C16.6231 98.0629 15.3677 99.5126 13.674 100.788C12.7382 101.566 11.7094 102.204 10.5914 102.705C9.28212 103.34 7.87983 103.809 6.38631 104.11C5.37166 104.316 4.4149 104.08 3.61178 103.428C2.80865 102.777 2.38286 101.89 2.37677 100.856L2.29388 86.5171C2.28859 86.2626 2.28354 86.0209 2.27899 85.7923C2.24308 84.0461 3.54937 82.5747 5.29028 82.4006ZM8.1214 93.5318C8.09918 95.1301 8.1214 96.6245 8.19194 98.0183C9.74459 97.4249 10.9553 96.4758 11.8244 95.1744C12.6007 93.9211 12.9201 92.6532 12.7827 91.3778C12.623 90.2583 12.1105 89.4275 11.2414 88.8789C10.4873 88.4006 9.54016 88.193 8.39637 88.2636C8.23665 90.2954 8.14365 92.0489 8.1214 93.5318ZM23.415 82.1385L26.0215 82.3476C27.0116 82.4271 27.8329 82.8786 28.4291 83.6718C29.0252 84.4647 29.2304 85.3779 29.0305 86.3491L28.7018 87.9457C28.6954 87.9762 28.6906 88.0022 28.6851 88.0328L27.7346 93.3613C27.7346 93.6139 27.6527 94.1956 27.4933 95.1078C27.3336 95.9306 27.2555 96.6017 27.2555 97.1285C27.2555 98.7487 27.9982 99.5569 29.4839 99.5569C30.5349 99.5569 31.3782 99.1938 32.0206 98.463C32.5667 97.8439 32.8414 97.0026 32.8414 95.9306L31.3671 81.7268L34.7446 81.9283C36.419 82.0283 37.7435 83.3224 37.8794 84.9914L38.2605 89.665L38.8065 97.299C38.992 99.7606 38.1008 101.611 36.1322 102.842C34.6465 103.754 32.2139 104.406 28.8301 104.792C25.677 105.137 23.4931 104.418 22.2821 102.638C21.2755 101.084 20.9675 98.8823 21.3574 96.0311L23.415 82.1385ZM42.5788 99.3532C41.6426 97.3433 41.186 95.2337 41.2083 93.0205C41.2527 90.9218 41.6762 88.9717 42.4746 87.166C43.2769 85.3196 44.3391 83.8923 45.6648 82.891C47.1286 81.8158 48.7143 81.4079 50.4303 81.6564C52.3284 81.9087 54.2708 82.9579 56.258 84.808L54.719 86.8426C53.8759 87.9576 52.5093 88.421 51.1597 88.0497C50.0469 87.7437 49.1046 87.9715 48.3058 88.7083C47.2594 89.6738 46.7498 91.1851 46.7942 93.2612C46.9091 95.2895 47.4811 96.7727 48.5098 97.7106C49.721 98.8488 51.2773 98.7117 53.1712 97.299L54.3572 98.8088C54.9462 99.5588 55.1749 100.422 55.0334 101.365C54.8922 102.307 54.4205 103.065 53.6375 103.61C52.7924 104.198 51.9056 104.58 50.9799 104.759C49.3306 105.077 47.723 104.703 46.1443 103.628C44.6585 102.649 43.4701 101.222 42.5788 99.3532ZM58.8673 82.9579L61.0077 82.6223C62.0255 82.4629 62.9663 82.7363 63.7393 83.4167C64.5118 84.0971 64.9018 84.9944 64.8705 86.0227C64.869 86.0862 64.8671 86.1483 64.8659 86.2094C66.7193 84.7041 68.3979 83.221 69.906 81.7603L70.5004 82.0363C71.5704 82.5333 72.2546 83.4654 72.4066 84.6337C72.5589 85.8017 72.1366 86.8776 71.2294 87.6314L71.079 87.7565C69.8308 88.7936 69.5064 90.5302 70.296 91.947L75.871 101.952L72.704 103.429C71.862 103.822 70.9956 103.858 70.1243 103.535C69.253 103.212 68.6193 102.622 68.2374 101.776L64.4536 93.3948C64.3865 96.7057 64.4536 99.9204 64.6615 103.05L63.1291 103.429C62.1 103.684 61.1075 103.475 60.2706 102.825C59.4332 102.176 58.9846 101.268 58.978 100.209L58.8673 82.9579Z" fill="white"/>
</g>
<defs>
<clipPath id="clip0_139_357">
<rect width="78" height="107" fill="white"/>
</clipPath>
</defs>
</svg>
